<svg width="104" height="40" viewBox="0 0 104 40" fill="none" xmlns="http://www.w3.org/2000/svg">
<path d="M42.5861 9.15611C48.4467 8.86106 49.9266 14.3862 48.7275 19.0765C47.5358 23.7368 44.2722 27.0847 39.1127 25.9748C37.6609 25.6625 36.5219 24.746 35.7835 23.5019C35.1838 25.489 34.5577 28.3139 34.0372 30.3857C33.8885 30.8984 33.5843 32.4326 33.3654 32.7703C33.0321 32.9461 29.413 32.8824 28.7209 32.8907L32.1432 18.4657L33.4195 12.772C33.653 11.7255 33.8932 10.5072 34.178 9.49158C34.8151 9.43892 35.71 9.46124 36.3683 9.46079C37.1846 9.46021 38.1309 9.43926 38.935 9.48872C38.8618 9.98518 38.7204 10.4691 38.5146 10.9269C39.7396 9.76082 40.9261 9.28212 42.5861 9.15611ZM39.9516 22.9643C40.9205 22.8599 41.8896 22.4678 42.4994 21.6309C43.9704 19.612 45.1952 14.8464 43.0363 12.9319C42.5907 12.5367 41.6204 12.2868 41.0401 12.3569C38.7041 12.6919 37.9891 14.0343 37.2821 16.162C36.4921 18.5394 36.3357 23.1683 39.9516 22.9643Z" fill="#2554AE"></path>
<path d="M86.8384 3.83761C86.9879 3.83177 87.0624 3.81586 87.1918 3.89686C86.9679 5.23933 86.4678 7.17827 86.1579 8.55062L82.9725 22.5893C82.8138 23.2888 82.418 25.2595 82.1316 25.7848C82.0039 25.8658 81.7661 25.8875 81.6132 25.886C80.2934 25.8725 78.9714 25.9043 77.6528 25.8754C77.6528 25.8754 77.5273 25.7868 77.517 25.7798C77.3772 25.4485 77.615 24.9506 77.7375 24.591C74.9319 26.7878 71.2023 26.8791 68.7959 24.0507C66.8758 21.8498 67.1657 18.101 67.9441 15.4421C69.2605 10.943 72.9752 8.14793 77.7358 9.44048C78.8179 9.73434 80.07 10.6565 80.5959 11.6787L80.6062 11.6989L80.6663 11.7152C81.2271 9.10226 81.8876 6.47852 82.4678 3.86429C83.669 3.783 85.5748 3.83778 86.8384 3.83761ZM75.4486 22.9595C76.3777 22.8641 76.6521 22.7263 77.395 22.1682C79.8644 20.3143 81.2191 11.8752 76.3851 12.357C75.2784 12.5114 74.5355 12.8058 73.8659 13.7547C72.6595 15.4637 72.0936 18.1575 72.3015 20.2115C72.4722 21.8982 73.7141 23.1078 75.4486 22.9595Z" fill="#2554AE"></path>
<path d="M57.4281 9.15662C59.9049 8.97961 61.8319 9.78726 63.1167 11.9441C63.257 11.1234 63.3888 10.2888 63.5835 9.48018C64.9743 9.41692 66.9546 9.44767 68.3602 9.47423C68.3018 10.0947 68.0263 11.1304 67.8774 11.7628L66.9694 15.6104C66.742 16.5744 64.779 25.4905 64.5608 25.7752C64.1088 25.9712 61.9012 25.8828 61.2006 25.8826C60.7762 25.8929 60.2217 26.0046 59.9353 25.6689C59.8516 25.3265 60.0665 24.8774 60.1925 24.5291C58.8796 25.4616 58.0118 26.0518 56.3575 26.1654C51.1855 26.5274 49.0747 22.0193 49.8331 17.4805C50.5417 13.2382 52.6812 9.4973 57.4281 9.15662ZM57.8067 22.9607C61.2413 22.5975 62.1618 18.0462 61.9184 15.2001C61.7603 13.3605 60.5402 12.2565 58.6969 12.3525C57.5782 12.5559 56.7103 12.8998 56.0762 13.9508C54.7989 16.0679 53.5805 20.7026 55.8786 22.4879C56.2784 22.7984 57.3255 23.039 57.8067 22.9607Z" fill="#2554AE"></path>
<path d="M19.1712 0.00564391L19.2125 0.0241354L19.2361 0.141551L11.254 23.0441C11.0361 23.6666 10.7551 24.3701 10.5728 24.9874C9.64522 28.1276 7.05501 30.5616 3.93197 31.4789C2.8399 31.7996 1.94081 31.8328 0.785902 31.8482L0.786819 26.8054C2.95847 26.9264 5.04266 26.2898 5.64795 23.8778C5.80994 23.2322 5.66863 22.5644 5.49959 21.931C4.28746 17.748 2.65757 13.6016 1.2512 9.47929C0.851775 8.30856 0.443072 7.08557 0 5.93408L3.39645 5.93202C3.85911 5.93162 4.79641 5.89853 5.20608 5.97049C5.52445 6.28141 8.28089 14.3948 8.61181 15.4797C8.94421 14.3346 9.507 12.8468 9.9137 11.6952L13.1287 2.47121C13.3458 1.84148 13.7132 0.679855 13.9988 0.132105C14.3239 -0.0679771 18.4516 0.0238488 19.1712 0.00564391Z" fill="#2554AE"></path>
<path d="M94.1857 9.04366L94.2206 9.04046C95.9562 8.89356 98.4319 9.60326 99.7202 10.7774C101.066 11.9436 101.736 13.4155 101.879 15.1638C102.233 19.5007 100.156 23.9587 95.9442 25.6239C94.7739 26.0866 93.8219 26.2054 92.5749 26.2902C90.6405 26.3566 88.4157 25.7303 86.943 24.4318C83.5302 21.4221 84.5658 15.1914 87.3245 12.0839C89.1987 9.97297 91.396 9.19629 94.1857 9.04366ZM92.6889 23.0574C96.0874 22.9825 97.1236 18.3609 97.0085 15.6697C96.9306 13.8494 96.2295 12.1937 94.1662 12.2502C93.0137 12.3468 92.1556 12.6509 91.3869 13.5649C89.8792 15.3569 89.5665 18.0916 89.7057 20.3559C89.7515 21.0979 90.0826 21.9962 90.6772 22.4573C91.3095 22.9483 91.9179 23.0573 92.6889 23.0574Z" fill="#2554AE"></path>
<path d="M24.144 9.04386C25.0658 8.9324 26.9029 9.24165 27.7526 9.57747C29.3814 10.2213 30.4364 11.1766 31.1761 12.7609C31.9114 14.3362 31.9055 17.0319 31.2866 18.6408C30.531 18.7304 28.2091 18.6673 27.3634 18.6664L19.3466 18.6719C19.3931 19.6396 19.287 20.3197 19.607 21.303C20.2076 23.1488 22.2155 23.3591 23.8436 22.8041C25.1824 22.3477 25.5467 21.5616 26.1257 20.3435C26.6449 20.3439 30.435 20.2802 30.6311 20.4082L30.6442 20.6187C30.2687 21.7314 29.8107 22.6505 29.032 23.5676C26.3775 26.694 19.8416 27.2683 16.7196 24.5914C13.2711 21.6346 14.3082 15.1416 17.1434 12.0177C19.1179 9.84201 21.3285 9.20175 24.144 9.04386ZM19.8452 15.5835L22.9932 15.5902C24.2428 15.591 25.6098 15.5633 26.8494 15.5968C26.868 14.9591 26.9067 14.4614 26.6609 13.8522C26.2672 12.877 25.3418 12.2812 24.2966 12.2464C24.1445 12.2424 23.9923 12.2423 23.8402 12.2461C21.6455 12.3899 20.6367 13.6748 19.8452 15.5835Z" fill="#2554AE"></path>
<path d="M63.0264 32.2133C62.9919 31.8909 62.8467 31.6398 62.5907 31.4602C62.3373 31.2805 62.0075 31.1907 61.6014 31.1907C61.3159 31.1907 61.071 31.2337 60.8668 31.3199C60.6625 31.406 60.5062 31.5229 60.3979 31.6706C60.2896 31.8183 60.2343 31.9868 60.2318 32.1763C60.2318 32.3338 60.2675 32.4704 60.3389 32.5861C60.4127 32.7018 60.5124 32.8002 60.6379 32.8814C60.7634 32.9602 60.9024 33.0266 61.055 33.0808C61.2076 33.1349 61.3614 33.1805 61.5165 33.2174L62.2253 33.3946C62.5108 33.461 62.7852 33.5509 63.0485 33.6641C63.3143 33.7773 63.5518 33.92 63.761 34.0923C63.9726 34.2646 64.14 34.4725 64.263 34.7162C64.3861 34.9598 64.4476 35.2453 64.4476 35.5726C64.4476 36.0156 64.3344 36.4057 64.108 36.7429C63.8816 37.0776 63.5543 37.3397 63.126 37.5292C62.7003 37.7162 62.1847 37.8098 61.5792 37.8098C60.991 37.8098 60.4804 37.7187 60.0472 37.5366C59.6165 37.3545 59.2794 37.0887 59.0357 36.7392C58.7945 36.3897 58.6641 35.9639 58.6444 35.4619H59.9918C60.0115 35.7252 60.0927 35.9443 60.2355 36.119C60.3782 36.2937 60.564 36.4242 60.7929 36.5103C61.0243 36.5964 61.2827 36.6395 61.5682 36.6395C61.866 36.6395 62.1268 36.5952 62.3508 36.5066C62.5772 36.4156 62.7544 36.29 62.8824 36.1301C63.0104 35.9676 63.0756 35.7781 63.078 35.5616C63.0756 35.3647 63.0177 35.2022 62.9045 35.0743C62.7913 34.9438 62.6326 34.8355 62.4283 34.7494C62.2265 34.6608 61.9902 34.582 61.7195 34.5131L60.8594 34.2916C60.2367 34.1317 59.7445 33.8893 59.3827 33.5644C59.0234 33.2371 58.8438 32.8027 58.8438 32.2612C58.8438 31.8158 58.9643 31.4257 59.2055 31.091C59.4492 30.7563 59.7802 30.4967 60.1986 30.3121C60.617 30.125 61.0907 30.0315 61.6198 30.0315C62.1564 30.0315 62.6264 30.125 63.03 30.3121C63.4361 30.4967 63.7548 30.7538 63.9862 31.0836C64.2175 31.4109 64.3369 31.7875 64.3443 32.2133H63.0264ZM65.6686 37.6953V30.1349H70.5859V31.283H67.0382V33.3355H70.3312V34.4836H67.0382V36.5472H70.6154V37.6953H65.6686ZM71.9832 37.6953V30.1349H74.8183C75.3991 30.1349 75.8864 30.2358 76.2802 30.4376C76.6764 30.6394 76.9755 30.9224 77.1773 31.2867C77.3815 31.6484 77.4837 32.0705 77.4837 32.5529C77.4837 33.0377 77.3803 33.4586 77.1736 33.8154C76.9693 34.1698 76.6678 34.4442 76.2691 34.6387C75.8704 34.8306 75.3807 34.9266 74.7999 34.9266H72.7805V33.7896H74.6153C74.9549 33.7896 75.233 33.7428 75.4496 33.6493C75.6662 33.5533 75.8261 33.4143 75.9295 33.2321C76.0353 33.0476 76.0882 32.8211 76.0882 32.5529C76.0882 32.2846 76.0353 32.0557 75.9295 31.8662C75.8237 31.6743 75.6625 31.5291 75.4459 31.4306C75.2293 31.3297 74.95 31.2793 74.6079 31.2793H73.3527V37.6953H71.9832ZM75.8889 34.2695L77.7605 37.6953H76.2322L74.3938 34.2695H75.8889ZM79.563 30.1349L81.5306 36.0858H81.6081L83.5721 30.1349H85.0783L82.4129 37.6953H80.7221L78.0605 30.1349H79.563ZM87.4437 30.1349V37.6953H86.0741V30.1349H87.4437ZM95.3982 32.6858H94.0175C93.9781 32.4594 93.9055 32.2588 93.7997 32.084C93.6939 31.9069 93.5622 31.7567 93.4047 31.6337C93.2472 31.5106 93.0675 31.4183 92.8657 31.3568C92.6664 31.2928 92.451 31.2608 92.2197 31.2608C91.8087 31.2608 91.4445 31.3642 91.127 31.5709C90.8095 31.7752 90.5609 32.0754 90.3813 32.4717C90.2016 32.8654 90.1118 33.3466 90.1118 33.9151C90.1118 34.4934 90.2016 34.9807 90.3813 35.377C90.5634 35.7707 90.812 36.0685 91.127 36.2703C91.4445 36.4697 91.8075 36.5694 92.216 36.5694C92.4424 36.5694 92.6541 36.5398 92.851 36.4808C93.0503 36.4192 93.2287 36.3294 93.3862 36.2113C93.5462 36.0931 93.6803 35.9479 93.7886 35.7757C93.8994 35.6034 93.9757 35.4065 94.0175 35.185L95.3982 35.1924C95.3465 35.5517 95.2345 35.8889 95.0622 36.2039C94.8924 36.5189 94.6697 36.797 94.3941 37.0382C94.1184 37.2769 93.796 37.464 93.4269 37.5993C93.0577 37.7322 92.6479 37.7987 92.1975 37.7987C91.5331 37.7987 90.9399 37.6449 90.4182 37.3372C89.8964 37.0296 89.4854 36.5854 89.1852 36.0046C88.8849 35.4237 88.7348 34.7272 88.7348 33.9151C88.7348 33.1005 88.8862 32.404 89.1889 31.8256C89.4916 31.2448 89.9038 30.8006 90.4256 30.493C90.9473 30.1853 91.538 30.0315 92.1975 30.0315C92.6184 30.0315 93.0097 30.0906 93.3715 30.2087C93.7333 30.3268 94.0557 30.5003 94.3387 30.7292C94.6217 30.9556 94.8543 31.2337 95.0364 31.5635C95.221 31.8909 95.3416 32.2649 95.3982 32.6858ZM96.6524 37.6953V30.1349H101.57V31.283H98.022V33.3355H101.315V34.4836H98.022V36.5472H101.599V37.6953H96.6524Z" fill="#2554AE"></path>
</svg>